<svg width="75" height="75" viewBox="0 0 75 75" fill="none" xmlns="http://www.w3.org/2000/svg">
<path d="M37.499 71.1232C37.0652 71.1232 36.6501 70.9489 36.3458 70.6406L9.4364 43.3281C3.35466 37.2462 0 30.0034 0 22.9413C0 11.5386 7.57549 3.87683 18.8515 3.87683C28.5444 3.87683 32.3858 8.18259 37.499 14.1925C42.6123 8.1832 46.4525 3.87683 56.1458 3.87683C67.423 3.87683 75 11.5386 75 22.9413C75 30.0034 71.6467 37.2468 65.5577 43.3364L38.6515 70.6408C38.3472 70.9496 37.9321 71.1232 37.499 71.1232ZM18.8515 7.11421C9.36654 7.11421 3.23738 13.3268 3.23738 22.9413C3.23738 29.1384 6.25466 35.5685 11.7343 41.0475L37.499 67.1989L63.2604 41.0561C68.746 35.5694 71.7626 29.1392 71.7626 22.9415C71.7626 13.3271 65.6322 7.11445 56.1458 7.11445C47.7681 7.11445 44.7229 10.695 39.6776 16.6273L38.7286 17.741C38.4208 18.1011 37.9714 18.3076 37.499 18.3076C37.0263 18.3076 36.5763 18.1011 36.2695 17.741L35.3267 16.6344C30.2789 10.6974 27.2319 7.11421 18.8515 7.11421Z" fill="black"/>
</svg>
